<?xml version="1.0" standalone="no"?>
<!DOCTYPE svg PUBLIC "-//W3C//DTD SVG 20010904//EN"
 "http://www.w3.org/TR/2001/REC-SVG-20010904/DTD/svg10.dtd">
<svg version="1.0" xmlns="http://www.w3.org/2000/svg"
 width="540.000000pt" height="540.000000pt" viewBox="0 0 540.000000 540.000000"
 preserveAspectRatio="xMidYMid meet">

<g transform="translate(0.000000,540.000000) scale(0.100000,-0.100000)"
fill="#000000" stroke="none">
<path d="M795 4486 c-83 -20 -146 -56 -211 -120 -65 -66 -105 -137 -123 -224
-16 -75 -16 -2809 0 -2884 36 -172 175 -311 347 -347 75 -16 3709 -16 3784 0
172 36 311 175 347 347 16 75 16 2809 0 2884 -36 172 -175 311 -347 347 -80
17 -3728 14 -3797 -3z m3460 -454 c-43 -41 -1541 -1096 -1555 -1096 -14 0
-1512 1055 -1555 1096 -19 17 24 18 1555 18 1531 0 1574 -1 1555 -18z m-2327
-1234 l772 -548 776 550 c426 303 782 554 790 557 12 4 14 -130 14 -1001 l0
-1006 -1575 0 -1575 0 0 1006 c0 801 3 1004 13 998 6 -4 360 -255 785 -556z"/>
</g>
</svg>
