<?xml version="1.0" encoding="UTF-8"?>
<!DOCTYPE svg PUBLIC "-//W3C//DTD SVG 1.1//EN" "http://www.w3.org/Graphics/SVG/1.1/DTD/svg11.dtd">
<svg xmlns="http://www.w3.org/2000/svg" version="1.1" width="512px" height="512px" style="shape-rendering:geometricPrecision; text-rendering:geometricPrecision; image-rendering:optimizeQuality; fill-rule:evenodd; clip-rule:evenodd" xmlns:xlink="http://www.w3.org/1999/xlink">
<g><path style="opacity:0.99" fill="#020003" d="M 238.5,-0.5 C 249.833,-0.5 261.167,-0.5 272.5,-0.5C 329.392,9.21159 370.892,39.8783 397,91.5C 416.011,133.513 421.011,177.18 412,222.5C 400.441,262.173 384.774,300.173 365,336.5C 331.829,396.874 295.662,455.207 256.5,511.5C 255.833,511.5 255.167,511.5 254.5,511.5C 215.672,455.875 179.838,398.209 147,338.5C 127.459,302.757 111.793,265.423 100,226.5C 86.9958,167.529 97.3292,113.196 131,63.5C 158.201,27.6501 194.034,6.31676 238.5,-0.5 Z M 244.5,96.5 C 273.469,93.4033 295.636,104.07 311,128.5C 325.027,158.538 320.194,185.038 296.5,208C 275.63,223.835 252.963,226.835 228.5,217C 195.174,197.366 185.008,169.199 198,132.5C 208.165,113.49 223.665,101.49 244.5,96.5 Z"/></g>
</svg>
