<?xml version="1.0" encoding="UTF-8"?>
<!DOCTYPE svg PUBLIC "-//W3C//DTD SVG 1.1//EN" "http://www.w3.org/Graphics/SVG/1.1/DTD/svg11.dtd">
<svg xmlns="http://www.w3.org/2000/svg" version="1.1" width="692px" height="990px" style="shape-rendering:geometricPrecision; text-rendering:geometricPrecision; image-rendering:optimizeQuality; fill-rule:evenodd; clip-rule:evenodd" xmlns:xlink="http://www.w3.org/1999/xlink">
<g><path style="opacity:1" fill="#020202" d="M 493.5,38.5 C 493.821,40.0481 494.821,40.7148 496.5,40.5C 497.167,40.8333 497.833,41.1667 498.5,41.5C 498.821,43.0481 499.821,43.7148 501.5,43.5C 502.167,43.8333 502.833,44.1667 503.5,44.5C 503.821,46.0481 504.821,46.7148 506.5,46.5C 506.821,48.0481 507.821,48.7148 509.5,48.5C 511.795,49.4746 513.795,50.8079 515.5,52.5C 516.035,54.4456 517.368,55.4456 519.5,55.5C 526.944,60.736 534.277,66.236 541.5,72C 543.706,74.0367 545.706,76.2034 547.5,78.5C 547.973,79.9063 548.973,80.573 550.5,80.5C 555.5,84.8333 560.167,89.5 564.5,94.5C 565.08,96.7488 566.413,98.4154 568.5,99.5C 572.544,102.543 575.877,106.209 578.5,110.5C 578.427,112.027 579.094,113.027 580.5,113.5C 581.5,113.833 582.167,114.5 582.5,115.5C 582.427,117.027 583.094,118.027 584.5,118.5C 586.984,120.8 588.984,123.467 590.5,126.5C 590.427,128.027 591.094,129.027 592.5,129.5C 592.738,131.404 593.738,132.738 595.5,133.5C 595.427,135.027 596.094,136.027 597.5,136.5C 598.89,137.899 599.89,139.566 600.5,141.5C 600.427,143.027 601.094,144.027 602.5,144.5C 624.457,180.027 638.124,218.693 643.5,260.5C 643.157,262.483 643.824,263.817 645.5,264.5C 648.135,288.511 648.135,312.511 645.5,336.5C 643.692,337.918 643.025,339.918 643.5,342.5C 638.365,380.738 626.532,416.738 608,450.5C 541.388,559.396 475.554,668.729 410.5,778.5C 409.167,778.5 408.5,779.167 408.5,780.5C 387.746,815.007 367.246,849.673 347,884.5C 344.851,885.84 343.684,885.173 343.5,882.5C 343.715,880.821 343.048,879.821 341.5,879.5C 340.833,878.167 340.167,876.833 339.5,875.5C 339.715,873.821 339.048,872.821 337.5,872.5C 335.5,869.167 333.5,865.833 331.5,862.5C 331.715,860.821 331.048,859.821 329.5,859.5C 329.167,858.833 328.833,858.167 328.5,857.5C 328.715,855.821 328.048,854.821 326.5,854.5C 325.248,852.999 324.248,851.332 323.5,849.5C 323.715,847.821 323.048,846.821 321.5,846.5C 321.167,845.833 320.833,845.167 320.5,844.5C 320.715,842.821 320.048,841.821 318.5,841.5C 316.5,838.167 314.5,834.833 312.5,831.5C 312.715,829.821 312.048,828.821 310.5,828.5C 310.167,827.833 309.833,827.167 309.5,826.5C 309.715,824.821 309.048,823.821 307.5,823.5C 305.5,820.167 303.5,816.833 301.5,813.5C 301.715,811.821 301.048,810.821 299.5,810.5C 299.167,809.833 298.833,809.167 298.5,808.5C 298.715,806.821 298.048,805.821 296.5,805.5C 294.523,801.867 292.19,798.533 289.5,795.5C 289.715,793.821 289.048,792.821 287.5,792.5C 287.167,791.833 286.833,791.167 286.5,790.5C 286.715,788.821 286.048,787.821 284.5,787.5C 283.496,786.317 282.662,784.984 282,783.5C 235.055,787.489 189.222,796.989 144.5,812C 126.71,817.558 110.71,826.225 96.5,838C 100.348,841.416 104.348,844.583 108.5,847.5C 108.821,849.048 109.821,849.715 111.5,849.5C 139.112,863.482 168.112,873.482 198.5,879.5C 199.183,881.176 200.517,881.843 202.5,881.5C 297.832,898.833 393.166,898.833 488.5,881.5C 490.483,881.843 491.817,881.176 492.5,879.5C 502.111,877.014 511.778,874.681 521.5,872.5C 524.152,872.59 526.485,871.924 528.5,870.5C 534.421,868.304 540.421,866.304 546.5,864.5C 548.698,864.88 550.365,864.213 551.5,862.5C 560.613,858.777 569.613,854.777 578.5,850.5C 580.027,850.573 581.027,849.906 581.5,848.5C 582.899,847.11 584.566,846.11 586.5,845.5C 588.404,845.262 589.738,844.262 590.5,842.5C 592.934,841.901 594.601,840.401 595.5,838C 595.164,836.97 594.497,836.47 593.5,836.5C 592.5,836.167 591.833,835.5 591.5,834.5C 591.027,833.094 590.027,832.427 588.5,832.5C 585.797,830.819 583.131,829.153 580.5,827.5C 580.027,826.094 579.027,825.427 577.5,825.5C 563.722,819.277 549.722,813.611 535.5,808.5C 534.365,806.787 532.698,806.12 530.5,806.5C 526.838,806.277 523.505,805.277 520.5,803.5C 518.485,802.076 516.152,801.41 513.5,801.5C 511.485,800.076 509.152,799.41 506.5,799.5C 494.447,796.957 482.447,794.29 470.5,791.5C 469.167,790.833 467.833,790.167 466.5,789.5C 467.906,789.027 468.573,788.027 468.5,786.5C 469.11,784.566 470.11,782.899 471.5,781.5C 472.906,781.027 473.573,780.027 473.5,778.5C 474.11,776.566 475.11,774.899 476.5,773.5C 477.906,773.027 478.573,772.027 478.5,770.5C 480.664,765.5 483.331,760.833 486.5,756.5C 487.906,756.027 488.573,755.027 488.5,753.5C 489.11,751.566 490.11,749.899 491.5,748.5C 492.906,748.027 493.573,747.027 493.5,745.5C 494.11,743.566 495.11,741.899 496.5,740.5C 497.906,740.027 498.573,739.027 498.5,737.5C 499.11,735.566 500.11,733.899 501.5,732.5C 502.906,732.027 503.573,731.027 503.5,729.5C 504.11,727.566 505.11,725.899 506.5,724.5C 507.906,724.027 508.573,723.027 508.5,721.5C 509.11,719.566 510.11,717.899 511.5,716.5C 512.906,716.027 513.573,715.027 513.5,713.5C 514.11,711.566 515.11,709.899 516.5,708.5C 517.906,708.027 518.573,707.027 518.5,705.5C 553.983,711.861 587.983,723.528 620.5,740.5C 620.821,742.048 621.821,742.715 623.5,742.5C 633.067,747.749 642.067,753.749 650.5,760.5C 650.856,762.19 651.856,763.19 653.5,763.5C 659.87,768.869 665.537,774.869 670.5,781.5C 670.738,783.404 671.738,784.738 673.5,785.5C 673.427,787.027 674.094,788.027 675.5,788.5C 675.427,790.027 676.094,791.027 677.5,791.5C 677.427,793.027 678.094,794.027 679.5,794.5C 682.9,799.307 685.234,804.64 686.5,810.5C 686.41,813.152 687.076,815.485 688.5,817.5C 689.684,821.461 690.684,825.461 691.5,829.5C 691.5,835.167 691.5,840.833 691.5,846.5C 686.876,877.231 671.876,901.731 646.5,920C 605.666,946.844 560.999,964.511 512.5,973C 425.06,989.439 337.06,993.105 248.5,984C 214.545,980.44 181.212,974.274 148.5,965.5C 146.485,964.076 144.152,963.41 141.5,963.5C 140.209,963.737 139.209,963.404 138.5,962.5C 136.485,961.076 134.152,960.41 131.5,960.5C 104.825,952.989 79.8248,941.989 56.5,927.5C 56.0269,926.094 55.0269,925.427 53.5,925.5C 53.0269,924.094 52.0269,923.427 50.5,923.5C 47.4669,921.984 44.8003,919.984 42.5,917.5C 42.0269,916.094 41.0269,915.427 39.5,915.5C 37.8333,914.5 36.5,913.167 35.5,911.5C 35.0269,910.094 34.0269,909.427 32.5,909.5C 23.5963,901.936 16.5963,892.936 11.5,882.5C 11.7709,880.62 11.1042,879.287 9.5,878.5C 4.46693,868.696 1.13359,858.363 -0.5,847.5C -0.5,841.167 -0.5,834.833 -0.5,828.5C 0.2679,826.285 0.934566,823.952 1.5,821.5C 2.92381,819.485 3.59047,817.152 3.5,814.5C 5.22901,806.38 8.56234,799.046 13.5,792.5C 14.9063,792.027 15.573,791.027 15.5,789.5C 17.1108,785.949 19.4442,782.949 22.5,780.5C 23.9063,780.027 24.573,779.027 24.5,777.5C 26.1667,775.167 28.1667,773.167 30.5,771.5C 34.1002,769.57 37.1002,766.903 39.5,763.5C 40.4777,760.522 42.4777,758.522 45.5,757.5C 47.4044,757.262 48.7377,756.262 49.5,754.5C 50.4363,753.026 51.7697,752.026 53.5,751.5C 55.0269,751.573 56.0269,750.906 56.5,749.5C 58.3797,749.771 59.713,749.104 60.5,747.5C 61.8993,746.11 63.5659,745.11 65.5,744.5C 67.0269,744.573 68.0269,743.906 68.5,742.5C 69.5137,741.326 70.847,740.66 72.5,740.5C 74.0269,740.573 75.0269,739.906 75.5,738.5C 94.4625,727.841 114.462,719.508 135.5,713.5C 139.162,713.277 142.495,712.277 145.5,710.5C 148.152,710.59 150.485,709.924 152.5,708.5C 155.152,708.59 157.485,707.924 159.5,706.5C 183.642,699.874 208.309,695.541 233.5,693.5C 235.933,693.214 235.933,692.548 233.5,691.5C 232.4,690.395 231.733,689.062 231.5,687.5C 231.446,685.368 230.446,684.035 228.5,683.5C 227.4,682.395 226.733,681.062 226.5,679.5C 226.446,677.368 225.446,676.035 223.5,675.5C 222.4,674.395 221.733,673.062 221.5,671.5C 221.446,669.368 220.446,668.035 218.5,667.5C 211.07,656.075 204.07,644.408 197.5,632.5C 197.715,630.821 197.048,629.821 195.5,629.5C 194.248,627.999 193.248,626.332 192.5,624.5C 192.715,622.821 192.048,621.821 190.5,621.5C 189.248,619.999 188.248,618.332 187.5,616.5C 187.715,614.821 187.048,613.821 185.5,613.5C 184.248,611.999 183.248,610.332 182.5,608.5C 182.715,606.821 182.048,605.821 180.5,605.5C 177.5,601.167 174.5,596.833 171.5,592.5C 171.715,590.821 171.048,589.821 169.5,589.5C 168.248,587.999 167.248,586.332 166.5,584.5C 166.715,582.821 166.048,581.821 164.5,581.5C 163.248,579.999 162.248,578.332 161.5,576.5C 161.715,574.821 161.048,573.821 159.5,573.5C 158.248,571.999 157.248,570.332 156.5,568.5C 156.715,566.821 156.048,565.821 154.5,565.5C 153.248,563.999 152.248,562.332 151.5,560.5C 151.715,558.821 151.048,557.821 149.5,557.5C 148.248,555.999 147.248,554.332 146.5,552.5C 146.715,550.821 146.048,549.821 144.5,549.5C 143.248,547.999 142.248,546.332 141.5,544.5C 141.715,542.821 141.048,541.821 139.5,541.5C 138.248,539.999 137.248,538.332 136.5,536.5C 136.715,534.821 136.048,533.821 134.5,533.5C 132.975,531.784 131.975,529.784 131.5,527.5C 131.715,525.821 131.048,524.821 129.5,524.5C 128.248,522.999 127.248,521.332 126.5,519.5C 126.715,517.821 126.048,516.821 124.5,516.5C 123.248,514.999 122.248,513.332 121.5,511.5C 121.715,509.821 121.048,508.821 119.5,508.5C 118.248,506.999 117.248,505.332 116.5,503.5C 116.715,501.821 116.048,500.821 114.5,500.5C 113.248,498.999 112.248,497.332 111.5,495.5C 111.715,493.821 111.048,492.821 109.5,492.5C 108.248,490.999 107.248,489.332 106.5,487.5C 106.715,485.821 106.048,484.821 104.5,484.5C 103.4,483.395 102.733,482.062 102.5,480.5C 102.446,478.368 101.446,477.035 99.5,476.5C 98.3995,475.395 97.7329,474.062 97.5,472.5C 97.4456,470.368 96.4456,469.035 94.5,468.5C 93.3995,467.395 92.7329,466.062 92.5,464.5C 92.4456,462.368 91.4456,461.035 89.5,460.5C 88.3995,459.395 87.7329,458.062 87.5,456.5C 87.4456,454.368 86.4456,453.035 84.5,452.5C 84.1667,451.833 83.8333,451.167 83.5,450.5C 83.7148,448.821 83.0481,447.821 81.5,447.5C 71.8238,430.804 64.4904,413.138 59.5,394.5C 59.5,393.167 58.8333,392.5 57.5,392.5C 44.019,349.731 40.1857,306.064 46,261.5C 47.3349,249.126 49.8349,237.126 53.5,225.5C 54.9238,223.485 55.5905,221.152 55.5,218.5C 56.9238,216.485 57.5905,214.152 57.5,211.5C 57.5,211.167 57.5,210.833 57.5,210.5C 58.8333,210.5 59.5,209.833 59.5,208.5C 65.2341,189.617 72.9008,171.617 82.5,154.5C 83.9063,154.027 84.573,153.027 84.5,151.5C 85.0787,148.669 86.412,146.336 88.5,144.5C 89.9063,144.027 90.573,143.027 90.5,141.5C 92.6735,137.148 95.3401,133.148 98.5,129.5C 99.9063,129.027 100.573,128.027 100.5,126.5C 102.016,123.467 104.016,120.8 106.5,118.5C 107.906,118.027 108.573,117.027 108.5,115.5C 108.833,114.5 109.5,113.833 110.5,113.5C 111.906,113.027 112.573,112.027 112.5,110.5C 113.167,109.167 114.167,108.167 115.5,107.5C 117.262,106.738 118.262,105.404 118.5,103.5C 119.5,101.833 120.833,100.5 122.5,99.5C 124.587,98.4154 125.92,96.7488 126.5,94.5C 128.167,92.1667 130.167,90.1667 132.5,88.5C 136.771,85.8991 140.437,82.5658 143.5,78.5C 143.5,77.8333 143.833,77.5 144.5,77.5C 147.427,76.2427 149.761,74.2427 151.5,71.5C 153.749,70.9202 155.415,69.5869 156.5,67.5C 160.872,63.1256 165.539,59.1256 170.5,55.5C 172.027,55.573 173.027,54.9063 173.5,53.5C 175.38,53.7709 176.713,53.1042 177.5,51.5C 179.027,51.573 180.027,50.9063 180.5,49.5C 182.027,49.573 183.027,48.9063 183.5,47.5C 186.494,45.0002 189.827,43.0002 193.5,41.5C 195.027,41.573 196.027,40.9063 196.5,39.5C 198.181,37.9925 200.181,36.9925 202.5,36.5C 204.027,36.573 205.027,35.9063 205.5,34.5C 216.96,28.1065 228.96,22.7732 241.5,18.5C 244.716,18.6545 247.383,17.6545 249.5,15.5C 249.833,15.5 250.167,15.5 250.5,15.5C 254.162,15.2766 257.495,14.2766 260.5,12.5C 263.152,12.5905 265.485,11.9238 267.5,10.5C 334.542,-6.75388 400.208,-2.25388 464.5,24C 474.472,28.3194 484.139,33.1527 493.5,38.5 Z M 384.5,145.5 C 385.93,146.537 387.597,147.204 389.5,147.5C 396.39,150.779 403.39,153.779 410.5,156.5C 410.973,157.906 411.973,158.573 413.5,158.5C 413.842,159.338 414.508,159.672 415.5,159.5C 415.973,160.906 416.973,161.573 418.5,161.5C 419.262,163.262 420.596,164.262 422.5,164.5C 423.262,166.262 424.596,167.262 426.5,167.5C 426.833,168.5 427.5,169.167 428.5,169.5C 429.585,171.587 431.251,172.92 433.5,173.5C 440.55,181.882 447.216,190.548 453.5,199.5C 453.932,200.71 454.599,201.71 455.5,202.5C 455.833,203.167 456.167,203.833 456.5,204.5C 456.932,205.71 457.599,206.71 458.5,207.5C 474.552,239.635 477.552,272.968 467.5,307.5C 466.463,308.93 465.796,310.597 465.5,312.5C 462.502,319.162 459.502,325.829 456.5,332.5C 455.094,332.973 454.427,333.973 454.5,335.5C 450.421,341.308 446.087,346.975 441.5,352.5C 439.413,353.585 438.08,355.251 437.5,357.5C 436.5,357.833 435.833,358.5 435.5,359.5C 432.236,361.094 429.569,363.427 427.5,366.5C 425.246,367.124 423.579,368.457 422.5,370.5C 420.973,370.427 419.973,371.094 419.5,372.5C 418.29,372.932 417.29,373.599 416.5,374.5C 414.973,374.427 413.973,375.094 413.5,376.5C 405.526,380.152 397.526,383.819 389.5,387.5C 386.603,388.129 383.936,389.129 381.5,390.5C 344.368,400.144 309.368,395.144 276.5,375.5C 275.71,374.599 274.71,373.932 273.5,373.5C 268.524,369.53 263.524,365.53 258.5,361.5C 257.833,360.167 256.833,359.167 255.5,358.5C 255.167,358.5 254.833,358.5 254.5,358.5C 253.243,355.573 251.243,353.239 248.5,351.5C 248.167,350.5 247.5,349.833 246.5,349.5C 246.573,347.973 245.906,346.973 244.5,346.5C 244.167,345.5 243.5,344.833 242.5,344.5C 242.573,342.973 241.906,341.973 240.5,341.5C 240.573,339.973 239.906,338.973 238.5,338.5C 238.573,336.973 237.906,335.973 236.5,335.5C 208.628,284.124 211.794,234.79 246,187.5C 271.668,156.419 304.835,140.419 345.5,139.5C 358.795,139.693 371.795,141.693 384.5,145.5 Z"/></g>
<g><path style="opacity:1" fill="#5d5d5d" d="M 267.5,10.5 C 265.485,11.9238 263.152,12.5905 260.5,12.5C 262.515,11.0762 264.848,10.4095 267.5,10.5 Z"/></g>
<g><path style="opacity:1" fill="#626262" d="M 260.5,12.5 C 257.495,14.2766 254.162,15.2766 250.5,15.5C 253.505,13.7234 256.838,12.7234 260.5,12.5 Z"/></g>
<g><path style="opacity:1" fill="#686868" d="M 249.5,15.5 C 247.383,17.6545 244.716,18.6545 241.5,18.5C 243.936,17.129 246.603,16.129 249.5,15.5 Z"/></g>
<g><path style="opacity:1" fill="#7c7c7c" d="M 205.5,34.5 C 205.027,35.9063 204.027,36.573 202.5,36.5C 202.973,35.0937 203.973,34.427 205.5,34.5 Z"/></g>
<g><path style="opacity:1" fill="#828282" d="M 493.5,38.5 C 494.71,38.9321 495.71,39.5987 496.5,40.5C 494.821,40.7148 493.821,40.0481 493.5,38.5 Z"/></g>
<g><path style="opacity:1" fill="#7e7e7e" d="M 196.5,39.5 C 196.027,40.9063 195.027,41.573 193.5,41.5C 193.973,40.0937 194.973,39.427 196.5,39.5 Z"/></g>
<g><path style="opacity:1" fill="#757575" d="M 498.5,41.5 C 499.71,41.9321 500.71,42.5987 501.5,43.5C 499.821,43.7148 498.821,43.0481 498.5,41.5 Z"/></g>
<g><path style="opacity:1" fill="#7f7f7f" d="M 503.5,44.5 C 504.71,44.9321 505.71,45.5987 506.5,46.5C 504.821,46.7148 503.821,46.0481 503.5,44.5 Z"/></g>
<g><path style="opacity:1" fill="#747474" d="M 506.5,46.5 C 507.71,46.9321 508.71,47.5987 509.5,48.5C 507.821,48.7148 506.821,48.0481 506.5,46.5 Z"/></g>
<g><path style="opacity:1" fill="#7c7c7c" d="M 183.5,47.5 C 183.027,48.9063 182.027,49.573 180.5,49.5C 180.973,48.0937 181.973,47.427 183.5,47.5 Z"/></g>
<g><path style="opacity:1" fill="#7a7a7a" d="M 180.5,49.5 C 180.027,50.9063 179.027,51.573 177.5,51.5C 177.973,50.0937 178.973,49.427 180.5,49.5 Z"/></g>
<g><path style="opacity:1" fill="#868686" d="M 177.5,51.5 C 176.713,53.1042 175.38,53.7709 173.5,53.5C 174.287,51.8958 175.62,51.2291 177.5,51.5 Z"/></g>
<g><path style="opacity:1" fill="#7e7e7e" d="M 515.5,52.5 C 517.23,53.0256 518.564,54.0256 519.5,55.5C 517.368,55.4456 516.035,54.4456 515.5,52.5 Z"/></g>
<g><path style="opacity:1" fill="#909090" d="M 173.5,53.5 C 173.027,54.9063 172.027,55.573 170.5,55.5C 170.973,54.0937 171.973,53.427 173.5,53.5 Z"/></g>
<g><path style="opacity:1" fill="#515151" d="M 156.5,67.5 C 155.415,69.5869 153.749,70.9202 151.5,71.5C 152.585,69.4131 154.251,68.0798 156.5,67.5 Z"/></g>
<g><path style="opacity:1" fill="#666666" d="M 151.5,71.5 C 149.761,74.2427 147.427,76.2427 144.5,77.5C 146.239,74.7573 148.573,72.7573 151.5,71.5 Z"/></g>
<g><path style="opacity:1" fill="#c3c3c3" d="M 547.5,78.5 C 549.027,78.427 550.027,79.0937 550.5,80.5C 548.973,80.573 547.973,79.9063 547.5,78.5 Z"/></g>
<g><path style="opacity:1" fill="#6e6e6e" d="M 143.5,78.5 C 140.437,82.5658 136.771,85.8991 132.5,88.5C 135.563,84.4342 139.229,81.1009 143.5,78.5 Z"/></g>
<g><path style="opacity:1" fill="#949494" d="M 564.5,94.5 C 566.587,95.5846 567.92,97.2512 568.5,99.5C 566.413,98.4154 565.08,96.7488 564.5,94.5 Z"/></g>
<g><path style="opacity:1" fill="#929292" d="M 126.5,94.5 C 125.92,96.7488 124.587,98.4154 122.5,99.5C 123.08,97.2512 124.413,95.5846 126.5,94.5 Z"/></g>
<g><path style="opacity:1" fill="#7c7c7c" d="M 118.5,103.5 C 118.262,105.404 117.262,106.738 115.5,107.5C 115.738,105.596 116.738,104.262 118.5,103.5 Z"/></g>
<g><path style="opacity:1" fill="#8c8c8c" d="M 112.5,110.5 C 112.573,112.027 111.906,113.027 110.5,113.5C 110.427,111.973 111.094,110.973 112.5,110.5 Z"/></g>
<g><path style="opacity:1" fill="#8a8a8a" d="M 578.5,110.5 C 579.906,110.973 580.573,111.973 580.5,113.5C 579.094,113.027 578.427,112.027 578.5,110.5 Z"/></g>
<g><path style="opacity:1" fill="#949494" d="M 108.5,115.5 C 108.573,117.027 107.906,118.027 106.5,118.5C 106.427,116.973 107.094,115.973 108.5,115.5 Z"/></g>
<g><path style="opacity:1" fill="#949494" d="M 582.5,115.5 C 583.906,115.973 584.573,116.973 584.5,118.5C 583.094,118.027 582.427,117.027 582.5,115.5 Z"/></g>
<g><path style="opacity:1" fill="#797979" d="M 100.5,126.5 C 100.573,128.027 99.9063,129.027 98.5,129.5C 98.427,127.973 99.0937,126.973 100.5,126.5 Z"/></g>
<g><path style="opacity:1" fill="#797979" d="M 590.5,126.5 C 591.906,126.973 592.573,127.973 592.5,129.5C 591.094,129.027 590.427,128.027 590.5,126.5 Z"/></g>
<g><path style="opacity:1" fill="#797979" d="M 592.5,129.5 C 594.262,130.262 595.262,131.596 595.5,133.5C 593.738,132.738 592.738,131.404 592.5,129.5 Z"/></g>
<g><path style="opacity:1" fill="#a2a2a2" d="M 595.5,133.5 C 596.906,133.973 597.573,134.973 597.5,136.5C 596.094,136.027 595.427,135.027 595.5,133.5 Z"/></g>
<g><path style="opacity:1" fill="#8c8c8c" d="M 90.5,141.5 C 90.573,143.027 89.9063,144.027 88.5,144.5C 88.427,142.973 89.0937,141.973 90.5,141.5 Z"/></g>
<g><path style="opacity:1" fill="#8a8a8a" d="M 600.5,141.5 C 601.906,141.973 602.573,142.973 602.5,144.5C 601.094,144.027 600.427,143.027 600.5,141.5 Z"/></g>
<g><path style="opacity:1" fill="#7e7e7e" d="M 384.5,145.5 C 386.698,145.12 388.365,145.787 389.5,147.5C 387.597,147.204 385.93,146.537 384.5,145.5 Z"/></g>
<g><path style="opacity:1" fill="#9c9c9c" d="M 84.5,151.5 C 84.573,153.027 83.9063,154.027 82.5,154.5C 82.427,152.973 83.0937,151.973 84.5,151.5 Z"/></g>
<g><path style="opacity:1" fill="#9f9f9f" d="M 410.5,156.5 C 412.027,156.427 413.027,157.094 413.5,158.5C 411.973,158.573 410.973,157.906 410.5,156.5 Z"/></g>
<g><path style="opacity:1" fill="#777777" d="M 415.5,159.5 C 417.027,159.427 418.027,160.094 418.5,161.5C 416.973,161.573 415.973,160.906 415.5,159.5 Z"/></g>
<g><path style="opacity:1" fill="#777777" d="M 418.5,161.5 C 420.404,161.738 421.738,162.738 422.5,164.5C 420.596,164.262 419.262,163.262 418.5,161.5 Z"/></g>
<g><path style="opacity:1" fill="#787878" d="M 422.5,164.5 C 424.404,164.738 425.738,165.738 426.5,167.5C 424.596,167.262 423.262,166.262 422.5,164.5 Z"/></g>
<g><path style="opacity:1" fill="#8d8d8d" d="M 428.5,169.5 C 430.749,170.08 432.415,171.413 433.5,173.5C 431.251,172.92 429.585,171.587 428.5,169.5 Z"/></g>
<g><path style="opacity:1" fill="#7f7f7f" d="M 453.5,199.5 C 455.048,199.821 455.715,200.821 455.5,202.5C 454.599,201.71 453.932,200.71 453.5,199.5 Z"/></g>
<g><path style="opacity:1" fill="#787878" d="M 456.5,204.5 C 458.048,204.821 458.715,205.821 458.5,207.5C 457.599,206.71 456.932,205.71 456.5,204.5 Z"/></g>
<g><path style="opacity:1" fill="#b1b1b1" d="M 59.5,208.5 C 59.5,209.833 58.8333,210.5 57.5,210.5C 57.5,209.167 58.1667,208.5 59.5,208.5 Z"/></g>
<g><path style="opacity:1" fill="#656565" d="M 57.5,211.5 C 57.5905,214.152 56.9238,216.485 55.5,218.5C 55.4095,215.848 56.0762,213.515 57.5,211.5 Z"/></g>
<g><path style="opacity:1" fill="#666666" d="M 55.5,218.5 C 55.5905,221.152 54.9238,223.485 53.5,225.5C 53.4095,222.848 54.0762,220.515 55.5,218.5 Z"/></g>
<g><path style="opacity:1" fill="#bdbdbd" d="M 643.5,260.5 C 645.176,261.183 645.843,262.517 645.5,264.5C 643.824,263.817 643.157,262.483 643.5,260.5 Z"/></g>
<g><path style="opacity:1" fill="#7a7a7a" d="M 467.5,307.5 C 467.88,309.698 467.213,311.365 465.5,312.5C 465.796,310.597 466.463,308.93 467.5,307.5 Z"/></g>
<g><path style="opacity:1" fill="#979797" d="M 456.5,332.5 C 456.573,334.027 455.906,335.027 454.5,335.5C 454.427,333.973 455.094,332.973 456.5,332.5 Z"/></g>
<g><path style="opacity:1" fill="#9a9a9a" d="M 236.5,335.5 C 237.906,335.973 238.573,336.973 238.5,338.5C 237.094,338.027 236.427,337.027 236.5,335.5 Z"/></g>
<g><path style="opacity:1" fill="#b4b4b4" d="M 645.5,336.5 C 645.975,339.082 645.308,341.082 643.5,342.5C 643.025,339.918 643.692,337.918 645.5,336.5 Z"/></g>
<g><path style="opacity:1" fill="#9d9d9d" d="M 238.5,338.5 C 239.906,338.973 240.573,339.973 240.5,341.5C 239.094,341.027 238.427,340.027 238.5,338.5 Z"/></g>
<g><path style="opacity:1" fill="#838383" d="M 240.5,341.5 C 241.906,341.973 242.573,342.973 242.5,344.5C 241.094,344.027 240.427,343.027 240.5,341.5 Z"/></g>
<g><path style="opacity:1" fill="#9e9e9e" d="M 244.5,346.5 C 245.906,346.973 246.573,347.973 246.5,349.5C 245.094,349.027 244.427,348.027 244.5,346.5 Z"/></g>
<g><path style="opacity:1" fill="#939393" d="M 248.5,351.5 C 251.243,353.239 253.243,355.573 254.5,358.5C 251.757,356.761 249.757,354.427 248.5,351.5 Z"/></g>
<g><path style="opacity:1" fill="#9b9b9b" d="M 441.5,352.5 C 440.92,354.749 439.587,356.415 437.5,357.5C 438.08,355.251 439.413,353.585 441.5,352.5 Z"/></g>
<g><path style="opacity:1" fill="#a6a6a6" d="M 255.5,358.5 C 256.833,359.167 257.833,360.167 258.5,361.5C 256.5,361.5 255.5,360.5 255.5,358.5 Z"/></g>
<g><path style="opacity:1" fill="#737373" d="M 435.5,359.5 C 433.431,362.573 430.764,364.906 427.5,366.5C 429.569,363.427 432.236,361.094 435.5,359.5 Z"/></g>
<g><path style="opacity:1" fill="#797979" d="M 422.5,370.5 C 422.027,371.906 421.027,372.573 419.5,372.5C 419.973,371.094 420.973,370.427 422.5,370.5 Z"/></g>
<g><path style="opacity:1" fill="#777777" d="M 273.5,373.5 C 274.71,373.932 275.71,374.599 276.5,375.5C 274.821,375.715 273.821,375.048 273.5,373.5 Z"/></g>
<g><path style="opacity:1" fill="#8b8b8b" d="M 416.5,374.5 C 416.027,375.906 415.027,376.573 413.5,376.5C 413.973,375.094 414.973,374.427 416.5,374.5 Z"/></g>
<g><path style="opacity:1" fill="#5d5d5d" d="M 389.5,387.5 C 387.383,389.655 384.716,390.655 381.5,390.5C 383.936,389.129 386.603,388.129 389.5,387.5 Z"/></g>
<g><path style="opacity:1" fill="#d7d7d7" d="M 57.5,392.5 C 58.8333,392.5 59.5,393.167 59.5,394.5C 58.1667,394.5 57.5,393.833 57.5,392.5 Z"/></g>
<g><path style="opacity:1" fill="#777777" d="M 81.5,447.5 C 83.0481,447.821 83.7148,448.821 83.5,450.5C 82.5987,449.71 81.9321,448.71 81.5,447.5 Z"/></g>
<g><path style="opacity:1" fill="#848484" d="M 84.5,452.5 C 86.4456,453.035 87.4456,454.368 87.5,456.5C 86.0256,455.564 85.0256,454.23 84.5,452.5 Z"/></g>
<g><path style="opacity:1" fill="#838383" d="M 89.5,460.5 C 91.4456,461.035 92.4456,462.368 92.5,464.5C 91.0256,463.564 90.0256,462.23 89.5,460.5 Z"/></g>
<g><path style="opacity:1" fill="#838383" d="M 94.5,468.5 C 96.4456,469.035 97.4456,470.368 97.5,472.5C 96.0256,471.564 95.0256,470.23 94.5,468.5 Z"/></g>
<g><path style="opacity:1" fill="#828282" d="M 99.5,476.5 C 101.446,477.035 102.446,478.368 102.5,480.5C 101.026,479.564 100.026,478.23 99.5,476.5 Z"/></g>
<g><path style="opacity:1" fill="#808080" d="M 104.5,484.5 C 106.048,484.821 106.715,485.821 106.5,487.5C 105.599,486.71 104.932,485.71 104.5,484.5 Z"/></g>
<g><path style="opacity:1" fill="#7e7e7e" d="M 109.5,492.5 C 111.048,492.821 111.715,493.821 111.5,495.5C 110.599,494.71 109.932,493.71 109.5,492.5 Z"/></g>
<g><path style="opacity:1" fill="#7d7d7d" d="M 114.5,500.5 C 116.048,500.821 116.715,501.821 116.5,503.5C 115.599,502.71 114.932,501.71 114.5,500.5 Z"/></g>
<g><path style="opacity:1" fill="#7d7d7d" d="M 119.5,508.5 C 121.048,508.821 121.715,509.821 121.5,511.5C 120.599,510.71 119.932,509.71 119.5,508.5 Z"/></g>
<g><path style="opacity:1" fill="#7c7c7c" d="M 124.5,516.5 C 126.048,516.821 126.715,517.821 126.5,519.5C 125.599,518.71 124.932,517.71 124.5,516.5 Z"/></g>
<g><path style="opacity:1" fill="#7c7c7c" d="M 129.5,524.5 C 131.048,524.821 131.715,525.821 131.5,527.5C 130.599,526.71 129.932,525.71 129.5,524.5 Z"/></g>
<g><path style="opacity:1" fill="#7c7c7c" d="M 134.5,533.5 C 136.048,533.821 136.715,534.821 136.5,536.5C 135.599,535.71 134.932,534.71 134.5,533.5 Z"/></g>
<g><path style="opacity:1" fill="#7b7b7b" d="M 139.5,541.5 C 141.048,541.821 141.715,542.821 141.5,544.5C 140.599,543.71 139.932,542.71 139.5,541.5 Z"/></g>
<g><path style="opacity:1" fill="#7b7b7b" d="M 144.5,549.5 C 146.048,549.821 146.715,550.821 146.5,552.5C 145.599,551.71 144.932,550.71 144.5,549.5 Z"/></g>
<g><path style="opacity:1" fill="#7b7b7b" d="M 149.5,557.5 C 151.048,557.821 151.715,558.821 151.5,560.5C 150.599,559.71 149.932,558.71 149.5,557.5 Z"/></g>
<g><path style="opacity:1" fill="#797979" d="M 154.5,565.5 C 156.048,565.821 156.715,566.821 156.5,568.5C 155.599,567.71 154.932,566.71 154.5,565.5 Z"/></g>
<g><path style="opacity:1" fill="#787878" d="M 159.5,573.5 C 161.048,573.821 161.715,574.821 161.5,576.5C 160.599,575.71 159.932,574.71 159.5,573.5 Z"/></g>
<g><path style="opacity:1" fill="#787878" d="M 164.5,581.5 C 166.048,581.821 166.715,582.821 166.5,584.5C 165.599,583.71 164.932,582.71 164.5,581.5 Z"/></g>
<g><path style="opacity:1" fill="#787878" d="M 169.5,589.5 C 171.048,589.821 171.715,590.821 171.5,592.5C 170.599,591.71 169.932,590.71 169.5,589.5 Z"/></g>
<g><path style="opacity:1" fill="#777777" d="M 180.5,605.5 C 182.048,605.821 182.715,606.821 182.5,608.5C 181.599,607.71 180.932,606.71 180.5,605.5 Z"/></g>
<g><path style="opacity:1" fill="#767676" d="M 185.5,613.5 C 187.048,613.821 187.715,614.821 187.5,616.5C 186.599,615.71 185.932,614.71 185.5,613.5 Z"/></g>
<g><path style="opacity:1" fill="#767676" d="M 190.5,621.5 C 192.048,621.821 192.715,622.821 192.5,624.5C 191.599,623.71 190.932,622.71 190.5,621.5 Z"/></g>
<g><path style="opacity:1" fill="#767676" d="M 195.5,629.5 C 197.048,629.821 197.715,630.821 197.5,632.5C 196.599,631.71 195.932,630.71 195.5,629.5 Z"/></g>
<g><path style="opacity:1" fill="#848484" d="M 218.5,667.5 C 220.446,668.035 221.446,669.368 221.5,671.5C 220.026,670.564 219.026,669.23 218.5,667.5 Z"/></g>
<g><path style="opacity:1" fill="#848484" d="M 223.5,675.5 C 225.446,676.035 226.446,677.368 226.5,679.5C 225.026,678.564 224.026,677.23 223.5,675.5 Z"/></g>
<g><path style="opacity:1" fill="#838383" d="M 228.5,683.5 C 230.446,684.035 231.446,685.368 231.5,687.5C 230.026,686.564 229.026,685.23 228.5,683.5 Z"/></g>
<g><path style="opacity:1" fill="#d1d1d1" d="M 233.5,691.5 C 235.933,692.548 235.933,693.214 233.5,693.5C 233.5,692.833 233.5,692.167 233.5,691.5 Z"/></g>
<g><path style="opacity:1" fill="#656565" d="M 159.5,706.5 C 157.485,707.924 155.152,708.59 152.5,708.5C 154.515,707.076 156.848,706.41 159.5,706.5 Z"/></g>
<g><path style="opacity:1" fill="#8c8c8c" d="M 518.5,705.5 C 518.573,707.027 517.906,708.027 516.5,708.5C 516.427,706.973 517.094,705.973 518.5,705.5 Z"/></g>
<g><path style="opacity:1" fill="#595959" d="M 152.5,708.5 C 150.485,709.924 148.152,710.59 145.5,710.5C 147.515,709.076 149.848,708.41 152.5,708.5 Z"/></g>
<g><path style="opacity:1" fill="#606060" d="M 145.5,710.5 C 142.495,712.277 139.162,713.277 135.5,713.5C 138.505,711.723 141.838,710.723 145.5,710.5 Z"/></g>
<g><path style="opacity:1" fill="#8c8c8c" d="M 513.5,713.5 C 513.573,715.027 512.906,716.027 511.5,716.5C 511.427,714.973 512.094,713.973 513.5,713.5 Z"/></g>
<g><path style="opacity:1" fill="#8d8d8d" d="M 508.5,721.5 C 508.573,723.027 507.906,724.027 506.5,724.5C 506.427,722.973 507.094,721.973 508.5,721.5 Z"/></g>
<g><path style="opacity:1" fill="#8d8d8d" d="M 503.5,729.5 C 503.573,731.027 502.906,732.027 501.5,732.5C 501.427,730.973 502.094,729.973 503.5,729.5 Z"/></g>
<g><path style="opacity:1" fill="#797979" d="M 75.5,738.5 C 75.0269,739.906 74.0269,740.573 72.5,740.5C 72.9731,739.094 73.9731,738.427 75.5,738.5 Z"/></g>
<g><path style="opacity:1" fill="#8f8f8f" d="M 498.5,737.5 C 498.573,739.027 497.906,740.027 496.5,740.5C 496.427,738.973 497.094,737.973 498.5,737.5 Z"/></g>
<g><path style="opacity:1" fill="#7a7a7a" d="M 620.5,740.5 C 621.71,740.932 622.71,741.599 623.5,742.5C 621.821,742.715 620.821,742.048 620.5,740.5 Z"/></g>
<g><path style="opacity:1" fill="#858585" d="M 68.5,742.5 C 68.0269,743.906 67.0269,744.573 65.5,744.5C 65.9731,743.094 66.9731,742.427 68.5,742.5 Z"/></g>
<g><path style="opacity:1" fill="#8f8f8f" d="M 493.5,745.5 C 493.573,747.027 492.906,748.027 491.5,748.5C 491.427,746.973 492.094,745.973 493.5,745.5 Z"/></g>
<g><path style="opacity:1" fill="#8b8b8b" d="M 60.5,747.5 C 59.713,749.104 58.3797,749.771 56.5,749.5C 57.287,747.896 58.6203,747.229 60.5,747.5 Z"/></g>
<g><path style="opacity:1" fill="#8f8f8f" d="M 56.5,749.5 C 56.0269,750.906 55.0269,751.573 53.5,751.5C 53.9731,750.094 54.9731,749.427 56.5,749.5 Z"/></g>
<g><path style="opacity:1" fill="#7d7d7d" d="M 49.5,754.5 C 48.7377,756.262 47.4044,757.262 45.5,757.5C 46.2623,755.738 47.5956,754.738 49.5,754.5 Z"/></g>
<g><path style="opacity:1" fill="#909090" d="M 488.5,753.5 C 488.573,755.027 487.906,756.027 486.5,756.5C 486.427,754.973 487.094,753.973 488.5,753.5 Z"/></g>
<g><path style="opacity:1" fill="#9d9d9d" d="M 650.5,760.5 C 652.5,760.5 653.5,761.5 653.5,763.5C 651.856,763.19 650.856,762.19 650.5,760.5 Z"/></g>
<g><path style="opacity:1" fill="#656565" d="M 39.5,763.5 C 37.1002,766.903 34.1002,769.57 30.5,771.5C 32.8998,768.097 35.8998,765.43 39.5,763.5 Z"/></g>
<g><path style="opacity:1" fill="#909090" d="M 478.5,770.5 C 478.573,772.027 477.906,773.027 476.5,773.5C 476.427,771.973 477.094,770.973 478.5,770.5 Z"/></g>
<g><path style="opacity:1" fill="#959595" d="M 24.5,777.5 C 24.573,779.027 23.9063,780.027 22.5,780.5C 22.427,778.973 23.0937,777.973 24.5,777.5 Z"/></g>
<g><path style="opacity:1" fill="#dadada" d="M 410.5,778.5 C 410.5,779.833 409.833,780.5 408.5,780.5C 408.5,779.167 409.167,778.5 410.5,778.5 Z"/></g>
<g><path style="opacity:1" fill="#929292" d="M 473.5,778.5 C 473.573,780.027 472.906,781.027 471.5,781.5C 471.427,779.973 472.094,778.973 473.5,778.5 Z"/></g>
<g><path style="opacity:1" fill="#777777" d="M 670.5,781.5 C 672.262,782.262 673.262,783.596 673.5,785.5C 671.738,784.738 670.738,783.404 670.5,781.5 Z"/></g>
<g><path style="opacity:1" fill="#767676" d="M 284.5,787.5 C 286.048,787.821 286.715,788.821 286.5,790.5C 285.599,789.71 284.932,788.71 284.5,787.5 Z"/></g>
<g><path style="opacity:1" fill="#7d7d7d" d="M 673.5,785.5 C 674.906,785.973 675.573,786.973 675.5,788.5C 674.094,788.027 673.427,787.027 673.5,785.5 Z"/></g>
<g><path style="opacity:1" fill="#919191" d="M 468.5,786.5 C 468.573,788.027 467.906,789.027 466.5,789.5C 466.427,787.973 467.094,786.973 468.5,786.5 Z"/></g>
<g><path style="opacity:1" fill="#9f9f9f" d="M 466.5,789.5 C 467.833,790.167 469.167,790.833 470.5,791.5C 468.712,791.785 467.045,791.452 465.5,790.5C 465.624,789.893 465.957,789.56 466.5,789.5 Z"/></g>
<g><path style="opacity:1" fill="#7b7b7b" d="M 675.5,788.5 C 676.906,788.973 677.573,789.973 677.5,791.5C 676.094,791.027 675.427,790.027 675.5,788.5 Z"/></g>
<g><path style="opacity:1" fill="#939393" d="M 15.5,789.5 C 15.573,791.027 14.9063,792.027 13.5,792.5C 13.427,790.973 14.0937,789.973 15.5,789.5 Z"/></g>
<g><path style="opacity:1" fill="#7d7d7d" d="M 287.5,792.5 C 289.048,792.821 289.715,793.821 289.5,795.5C 288.599,794.71 287.932,793.71 287.5,792.5 Z"/></g>
<g><path style="opacity:1" fill="#a0a0a0" d="M 677.5,791.5 C 678.906,791.973 679.573,792.973 679.5,794.5C 678.094,794.027 677.427,793.027 677.5,791.5 Z"/></g>
<g><path style="opacity:1" fill="#696969" d="M 506.5,799.5 C 509.152,799.41 511.485,800.076 513.5,801.5C 510.848,801.59 508.515,800.924 506.5,799.5 Z"/></g>
<g><path style="opacity:1" fill="#6a6a6a" d="M 513.5,801.5 C 516.152,801.41 518.485,802.076 520.5,803.5C 517.848,803.59 515.515,802.924 513.5,801.5 Z"/></g>
<g><path style="opacity:1" fill="#787878" d="M 296.5,805.5 C 298.048,805.821 298.715,806.821 298.5,808.5C 297.599,807.71 296.932,806.71 296.5,805.5 Z"/></g>
<g><path style="opacity:1" fill="#7d7d7d" d="M 530.5,806.5 C 532.698,806.12 534.365,806.787 535.5,808.5C 533.597,808.204 531.93,807.537 530.5,806.5 Z"/></g>
<g><path style="opacity:1" fill="#7f7f7f" d="M 299.5,810.5 C 301.048,810.821 301.715,811.821 301.5,813.5C 300.599,812.71 299.932,811.71 299.5,810.5 Z"/></g>
<g><path style="opacity:1" fill="#646464" d="M 686.5,810.5 C 687.924,812.515 688.59,814.848 688.5,817.5C 687.076,815.485 686.41,813.152 686.5,810.5 Z"/></g>
<g><path style="opacity:1" fill="#6e6e6e" d="M 3.5,814.5 C 3.59047,817.152 2.92381,819.485 1.5,821.5C 1.40953,818.848 2.07619,816.515 3.5,814.5 Z"/></g>
<g><path style="opacity:1" fill="#7a7a7a" d="M 307.5,823.5 C 309.048,823.821 309.715,824.821 309.5,826.5C 308.599,825.71 307.932,824.71 307.5,823.5 Z"/></g>
<g><path style="opacity:1" fill="#959595" d="M 577.5,825.5 C 579.027,825.427 580.027,826.094 580.5,827.5C 578.973,827.573 577.973,826.906 577.5,825.5 Z"/></g>
<g><path style="opacity:1" fill="#818181" d="M 310.5,828.5 C 312.048,828.821 312.715,829.821 312.5,831.5C 311.599,830.71 310.932,829.71 310.5,828.5 Z"/></g>
<g><path style="opacity:1" fill="#8a8a8a" d="M 588.5,832.5 C 590.027,832.427 591.027,833.094 591.5,834.5C 589.973,834.573 588.973,833.906 588.5,832.5 Z"/></g>
<g><path style="opacity:1" fill="#525252" d="M 593.5,836.5 C 594.497,836.47 595.164,836.97 595.5,838C 594.601,840.401 592.934,841.901 590.5,842.5C 591.625,840.871 592.959,839.371 594.5,838C 593.944,837.617 593.611,837.117 593.5,836.5 Z"/></g>
<g><path style="opacity:1" fill="#7c7c7c" d="M 318.5,841.5 C 320.048,841.821 320.715,842.821 320.5,844.5C 319.599,843.71 318.932,842.71 318.5,841.5 Z"/></g>
<g><path style="opacity:1" fill="#7a7a7a" d="M 590.5,842.5 C 589.738,844.262 588.404,845.262 586.5,845.5C 587.262,843.738 588.596,842.738 590.5,842.5 Z"/></g>
<g><path style="opacity:1" fill="#828282" d="M 321.5,846.5 C 323.048,846.821 323.715,847.821 323.5,849.5C 322.599,848.71 321.932,847.71 321.5,846.5 Z"/></g>
<g><path style="opacity:1" fill="#838383" d="M 108.5,847.5 C 109.71,847.932 110.71,848.599 111.5,849.5C 109.821,849.715 108.821,849.048 108.5,847.5 Z"/></g>
<g><path style="opacity:1" fill="#828282" d="M 581.5,848.5 C 581.027,849.906 580.027,850.573 578.5,850.5C 578.973,849.094 579.973,848.427 581.5,848.5 Z"/></g>
<g><path style="opacity:1" fill="#767676" d="M 326.5,854.5 C 328.048,854.821 328.715,855.821 328.5,857.5C 327.599,856.71 326.932,855.71 326.5,854.5 Z"/></g>
<g><path style="opacity:1" fill="#7c7c7c" d="M 329.5,859.5 C 331.048,859.821 331.715,860.821 331.5,862.5C 330.599,861.71 329.932,860.71 329.5,859.5 Z"/></g>
<g><path style="opacity:1" fill="#757575" d="M 551.5,862.5 C 550.365,864.213 548.698,864.88 546.5,864.5C 547.93,863.463 549.597,862.796 551.5,862.5 Z"/></g>
<g><path style="opacity:1" fill="#5f5f5f" d="M 528.5,870.5 C 526.485,871.924 524.152,872.59 521.5,872.5C 523.515,871.076 525.848,870.41 528.5,870.5 Z"/></g>
<g><path style="opacity:1" fill="#777777" d="M 337.5,872.5 C 339.048,872.821 339.715,873.821 339.5,875.5C 338.599,874.71 337.932,873.71 337.5,872.5 Z"/></g>
<g><path style="opacity:1" fill="#818181" d="M 9.5,878.5 C 11.1042,879.287 11.7709,880.62 11.5,882.5C 9.89578,881.713 9.22911,880.38 9.5,878.5 Z"/></g>
<g><path style="opacity:1" fill="#b9b9b9" d="M 198.5,879.5 C 200.483,879.157 201.817,879.824 202.5,881.5C 200.517,881.843 199.183,881.176 198.5,879.5 Z"/></g>
<g><path style="opacity:1" fill="#868686" d="M 341.5,879.5 C 343.048,879.821 343.715,880.821 343.5,882.5C 342.094,882.027 341.427,881.027 341.5,879.5 Z"/></g>
<g><path style="opacity:1" fill="#8d8d8d" d="M 492.5,879.5 C 491.817,881.176 490.483,881.843 488.5,881.5C 489.183,879.824 490.517,879.157 492.5,879.5 Z"/></g>
<g><path style="opacity:1" fill="#989898" d="M 32.5,909.5 C 34.0269,909.427 35.0269,910.094 35.5,911.5C 33.9731,911.573 32.9731,910.906 32.5,909.5 Z"/></g>
<g><path style="opacity:1" fill="#9c9c9c" d="M 39.5,915.5 C 41.0269,915.427 42.0269,916.094 42.5,917.5C 40.9731,917.573 39.9731,916.906 39.5,915.5 Z"/></g>
<g><path style="opacity:1" fill="#868686" d="M 50.5,923.5 C 52.0269,923.427 53.0269,924.094 53.5,925.5C 51.9731,925.573 50.9731,924.906 50.5,923.5 Z"/></g>
<g><path style="opacity:1" fill="#838383" d="M 53.5,925.5 C 55.0269,925.427 56.0269,926.094 56.5,927.5C 54.9731,927.573 53.9731,926.906 53.5,925.5 Z"/></g>
<g><path style="opacity:1" fill="#5d5d5d" d="M 131.5,960.5 C 134.152,960.41 136.485,961.076 138.5,962.5C 135.848,962.59 133.515,961.924 131.5,960.5 Z"/></g>
<g><path style="opacity:1" fill="#737373" d="M 141.5,963.5 C 144.152,963.41 146.485,964.076 148.5,965.5C 145.848,965.59 143.515,964.924 141.5,963.5 Z"/></g>
</svg>
