<?xml version="1.0" standalone="no"?>
<!DOCTYPE svg PUBLIC "-//W3C//DTD SVG 20010904//EN"
 "http://www.w3.org/TR/2001/REC-SVG-20010904/DTD/svg10.dtd">
<svg version="1.0" xmlns="http://www.w3.org/2000/svg"
 width="512.000000pt" height="512.000000pt" viewBox="0 0 512.000000 512.000000"
 preserveAspectRatio="xMidYMid meet">

<g transform="translate(0.000000,512.000000) scale(0.100000,-0.100000)"
fill="#000000" stroke="none">
<path d="M2420 5114 c-19 -2 -77 -9 -128 -15 -808 -94 -1550 -610 -1919 -1334
-189 -370 -273 -726 -273 -1142 1 -411 83 -751 272 -1130 l81 -162 -226 -663
c-124 -365 -224 -664 -223 -665 1 -1 313 99 694 223 l693 225 57 -31 c31 -17
102 -51 157 -75 508 -220 1082 -266 1627 -129 221 55 528 185 708 300 221 141
490 379 632 559 293 372 462 771 530 1250 19 136 16 503 -5 645 -57 371 -193
727 -389 1021 -110 164 -188 260 -318 389 -386 386 -872 629 -1430 715 -100
15 -463 28 -540 19z m405 -404 c795 -87 1461 -592 1755 -1329 140 -354 177
-777 99 -1166 -128 -642 -571 -1203 -1176 -1487 -630 -295 -1393 -256 -1978
102 -36 22 -72 40 -79 40 -8 0 -191 -56 -407 -124 -217 -68 -395 -123 -396
-122 -2 1 55 176 126 388 l128 385 -64 99 c-79 123 -182 330 -222 449 -77 231
-102 379 -108 635 -6 238 8 366 62 575 52 201 125 375 233 550 345 560 925
931 1572 1004 107 12 349 13 455 1z"/>
<path d="M1682 3751 c-23 -11 -65 -43 -92 -71 -143 -147 -209 -322 -197 -525
11 -186 78 -354 232 -580 130 -192 205 -284 360 -443 248 -256 454 -399 725
-505 273 -107 480 -167 576 -167 152 0 343 75 459 182 36 33 75 78 86 99 28
56 49 154 49 236 0 70 -1 73 -34 98 -54 41 -516 257 -563 262 -49 6 -59 -2
-155 -128 -31 -41 -79 -98 -106 -126 -62 -68 -86 -69 -222 -8 -307 138 -562
362 -739 651 -54 88 -52 100 22 185 76 88 135 177 143 219 5 23 -15 82 -91
267 -114 276 -135 321 -165 348 -19 17 -38 20 -134 23 -93 2 -118 -1 -154 -17z"/>
</g>
</svg>
