<?xml version="1.0" standalone="no"?>
<!DOCTYPE svg PUBLIC "-//W3C//DTD SVG 20010904//EN"
 "http://www.w3.org/TR/2001/REC-SVG-20010904/DTD/svg10.dtd">
<svg version="1.0" xmlns="http://www.w3.org/2000/svg"
 width="512.000000pt" height="512.000000pt" viewBox="0 0 512.000000 512.000000"
 preserveAspectRatio="xMidYMid meet">

<g transform="translate(0.000000,512.000000) scale(0.100000,-0.100000)"
fill="#000000" stroke="none">
<path d="M1430 4469 c-486 -11 -754 -25 -825 -44 -33 -8 -98 -34 -145 -57 -69
-34 -103 -60 -180 -138 -79 -78 -104 -111 -144 -188 -75 -147 -91 -228 -112
-577 -37 -606 -18 -1952 31 -2159 59 -252 199 -442 406 -551 141 -74 213 -81
1109 -105 1007 -27 2760 3 2946 50 269 69 476 296 549 605 65 272 66 2213 1
2516 -62 289 -274 526 -536 599 -89 24 -280 35 -920 50 -483 11 -1666 11
-2180 -1z m2152 -319 c246 -6 538 -14 649 -19 l200 -9 74 -36 c118 -58 214
-183 244 -316 23 -106 51 -770 51 -1220 0 -477 -29 -1097 -56 -1204 -32 -130
-130 -254 -242 -308 -59 -28 -80 -32 -197 -39 -773 -46 -2809 -46 -3503 0
-108 8 -130 12 -186 40 -71 35 -147 107 -189 179 -54 93 -66 155 -84 440 -35
541 -17 1924 28 2112 43 184 190 327 360 350 56 7 663 27 1044 33 411 8 1422
5 1807 -3z"/>
<path d="M2070 2565 c0 -536 3 -975 6 -975 3 0 329 219 724 487 l719 486 -52
37 c-112 79 -1387 940 -1392 940 -3 0 -5 -439 -5 -975z"/>
</g>
</svg>
